<?xml version="1.0" encoding="utf-8"?>
<svg xmlns="http://www.w3.org/2000/svg" xmlns:xlink="http://www.w3.org/1999/xlink" width="800" height="450" viewBox="0 0 3200 1800">
<defs>
  <clipPath id="clip730">
    <rect x="0" y="0" width="3200" height="1800"/>
  </clipPath>
</defs>
<path clip-path="url(#clip730)" d="
M0 1800 L3200 1800 L3200 0 L0 0  Z
  " fill="#ffffff" fill-rule="evenodd" fill-opacity="1"/>
<defs>
  <clipPath id="clip731">
    <rect x="640" y="0" width="2241" height="1800"/>
  </clipPath>
</defs>
<path clip-path="url(#clip730)" d="
M235.187 1634 L3152.76 1634 L3152.76 114.022 L235.187 114.022  Z
  " fill="#ffffff" fill-rule="evenodd" fill-opacity="1"/>
<defs>
  <clipPath id="clip732">
    <rect x="235" y="114" width="2919" height="1521"/>
  </clipPath>
</defs>
<polyline clip-path="url(#clip732)" style="stroke:#000000; stroke-linecap:butt; stroke-linejoin:round; stroke-width:2; stroke-opacity:0.1; fill:none" points="
  317.759,1634 317.759,114.022 
  "/>
<polyline clip-path="url(#clip732)" style="stroke:#000000; stroke-linecap:butt; stroke-linejoin:round; stroke-width:2; stroke-opacity:0.1; fill:none" points="
  1005.87,1634 1005.87,114.022 
  "/>
<polyline clip-path="url(#clip732)" style="stroke:#000000; stroke-linecap:butt; stroke-linejoin:round; stroke-width:2; stroke-opacity:0.1; fill:none" points="
  1693.97,1634 1693.97,114.022 
  "/>
<polyline clip-path="url(#clip732)" style="stroke:#000000; stroke-linecap:butt; stroke-linejoin:round; stroke-width:2; stroke-opacity:0.1; fill:none" points="
  2382.08,1634 2382.08,114.022 
  "/>
<polyline clip-path="url(#clip732)" style="stroke:#000000; stroke-linecap:butt; stroke-linejoin:round; stroke-width:2; stroke-opacity:0.1; fill:none" points="
  3070.18,1634 3070.18,114.022 
  "/>
<polyline clip-path="url(#clip730)" style="stroke:#000000; stroke-linecap:butt; stroke-linejoin:round; stroke-width:4; stroke-opacity:1; fill:none" points="
  235.187,1634 3152.76,1634 
  "/>
<polyline clip-path="url(#clip730)" style="stroke:#000000; stroke-linecap:butt; stroke-linejoin:round; stroke-width:4; stroke-opacity:1; fill:none" points="
  317.759,1634 317.759,1615.11 
  "/>
<polyline clip-path="url(#clip730)" style="stroke:#000000; stroke-linecap:butt; stroke-linejoin:round; stroke-width:4; stroke-opacity:1; fill:none" points="
  1005.87,1634 1005.87,1615.11 
  "/>
<polyline clip-path="url(#clip730)" style="stroke:#000000; stroke-linecap:butt; stroke-linejoin:round; stroke-width:4; stroke-opacity:1; fill:none" points="
  1693.97,1634 1693.97,1615.11 
  "/>
<polyline clip-path="url(#clip730)" style="stroke:#000000; stroke-linecap:butt; stroke-linejoin:round; stroke-width:4; stroke-opacity:1; fill:none" points="
  2382.08,1634 2382.08,1615.11 
  "/>
<polyline clip-path="url(#clip730)" style="stroke:#000000; stroke-linecap:butt; stroke-linejoin:round; stroke-width:4; stroke-opacity:1; fill:none" points="
  3070.18,1634 3070.18,1615.11 
  "/>
<path clip-path="url(#clip730)" d="M264.982 1671.32 Q261.371 1671.32 259.542 1674.89 Q257.736 1678.43 257.736 1685.56 Q257.736 1692.67 259.542 1696.23 Q261.371 1699.77 264.982 1699.77 Q268.616 1699.77 270.422 1696.23 Q272.25 1692.67 272.25 1685.56 Q272.25 1678.43 270.422 1674.89 Q268.616 1671.32 264.982 1671.32 M264.982 1667.62 Q270.792 1667.62 273.847 1672.23 Q276.926 1676.81 276.926 1685.56 Q276.926 1694.29 273.847 1698.89 Q270.792 1703.48 264.982 1703.48 Q259.172 1703.48 256.093 1698.89 Q253.037 1694.29 253.037 1685.56 Q253.037 1676.81 256.093 1672.23 Q259.172 1667.62 264.982 1667.62 Z" fill="#000000" fill-rule="evenodd" fill-opacity="1" /><path clip-path="url(#clip730)" d="M285.144 1696.93 L290.028 1696.93 L290.028 1702.8 L285.144 1702.8 L285.144 1696.93 Z" fill="#000000" fill-rule="evenodd" fill-opacity="1" /><path clip-path="url(#clip730)" d="M310.213 1671.32 Q306.602 1671.32 304.773 1674.89 Q302.968 1678.43 302.968 1685.56 Q302.968 1692.67 304.773 1696.23 Q306.602 1699.77 310.213 1699.77 Q313.847 1699.77 315.653 1696.23 Q317.481 1692.67 317.481 1685.56 Q317.481 1678.43 315.653 1674.89 Q313.847 1671.32 310.213 1671.32 M310.213 1667.62 Q316.023 1667.62 319.079 1672.23 Q322.157 1676.81 322.157 1685.56 Q322.157 1694.29 319.079 1698.89 Q316.023 1703.48 310.213 1703.48 Q304.403 1703.48 301.324 1698.89 Q298.269 1694.29 298.269 1685.56 Q298.269 1676.81 301.324 1672.23 Q304.403 1667.62 310.213 1667.62 Z" fill="#000000" fill-rule="evenodd" fill-opacity="1" /><path clip-path="url(#clip730)" d="M340.375 1671.32 Q336.764 1671.32 334.935 1674.89 Q333.13 1678.43 333.13 1685.56 Q333.13 1692.67 334.935 1696.23 Q336.764 1699.77 340.375 1699.77 Q344.009 1699.77 345.815 1696.23 Q347.643 1692.67 347.643 1685.56 Q347.643 1678.43 345.815 1674.89 Q344.009 1671.32 340.375 1671.32 M340.375 1667.62 Q346.185 1667.62 349.241 1672.23 Q352.319 1676.81 352.319 1685.56 Q352.319 1694.29 349.241 1698.89 Q346.185 1703.48 340.375 1703.48 Q334.565 1703.48 331.486 1698.89 Q328.431 1694.29 328.431 1685.56 Q328.431 1676.81 331.486 1672.23 Q334.565 1667.62 340.375 1667.62 Z" fill="#000000" fill-rule="evenodd" fill-opacity="1" /><path clip-path="url(#clip730)" d="M370.537 1671.32 Q366.926 1671.32 365.097 1674.89 Q363.291 1678.43 363.291 1685.56 Q363.291 1692.67 365.097 1696.23 Q366.926 1699.77 370.537 1699.77 Q374.171 1699.77 375.977 1696.23 Q377.805 1692.67 377.805 1685.56 Q377.805 1678.43 375.977 1674.89 Q374.171 1671.32 370.537 1671.32 M370.537 1667.62 Q376.347 1667.62 379.402 1672.23 Q382.481 1676.81 382.481 1685.56 Q382.481 1694.29 379.402 1698.89 Q376.347 1703.48 370.537 1703.48 Q364.727 1703.48 361.648 1698.89 Q358.592 1694.29 358.592 1685.56 Q358.592 1676.81 361.648 1672.23 Q364.727 1667.62 370.537 1667.62 Z" fill="#000000" fill-rule="evenodd" fill-opacity="1" /><path clip-path="url(#clip730)" d="M953.585 1671.32 Q949.974 1671.32 948.146 1674.89 Q946.34 1678.43 946.34 1685.56 Q946.34 1692.67 948.146 1696.23 Q949.974 1699.77 953.585 1699.77 Q957.22 1699.77 959.025 1696.23 Q960.854 1692.67 960.854 1685.56 Q960.854 1678.43 959.025 1674.89 Q957.22 1671.32 953.585 1671.32 M953.585 1667.62 Q959.396 1667.62 962.451 1672.23 Q965.53 1676.81 965.53 1685.56 Q965.53 1694.29 962.451 1698.89 Q959.396 1703.48 953.585 1703.48 Q947.775 1703.48 944.697 1698.89 Q941.641 1694.29 941.641 1685.56 Q941.641 1676.81 944.697 1672.23 Q947.775 1667.62 953.585 1667.62 Z" fill="#000000" fill-rule="evenodd" fill-opacity="1" /><path clip-path="url(#clip730)" d="M973.747 1696.93 L978.632 1696.93 L978.632 1702.8 L973.747 1702.8 L973.747 1696.93 Z" fill="#000000" fill-rule="evenodd" fill-opacity="1" /><path clip-path="url(#clip730)" d="M998.817 1671.32 Q995.206 1671.32 993.377 1674.89 Q991.571 1678.43 991.571 1685.56 Q991.571 1692.67 993.377 1696.23 Q995.206 1699.77 998.817 1699.77 Q1002.45 1699.77 1004.26 1696.23 Q1006.09 1692.67 1006.09 1685.56 Q1006.09 1678.43 1004.26 1674.89 Q1002.45 1671.32 998.817 1671.32 M998.817 1667.62 Q1004.63 1667.62 1007.68 1672.23 Q1010.76 1676.81 1010.76 1685.56 Q1010.76 1694.29 1007.68 1698.89 Q1004.63 1703.48 998.817 1703.48 Q993.007 1703.48 989.928 1698.89 Q986.872 1694.29 986.872 1685.56 Q986.872 1676.81 989.928 1672.23 Q993.007 1667.62 998.817 1667.62 Z" fill="#000000" fill-rule="evenodd" fill-opacity="1" /><path clip-path="url(#clip730)" d="M1023.01 1698.87 L1039.33 1698.87 L1039.33 1702.8 L1017.38 1702.8 L1017.38 1698.87 Q1020.04 1696.12 1024.63 1691.49 Q1029.23 1686.83 1030.41 1685.49 Q1032.66 1682.97 1033.54 1681.23 Q1034.44 1679.47 1034.44 1677.78 Q1034.44 1675.03 1032.5 1673.29 Q1030.58 1671.56 1027.47 1671.56 Q1025.27 1671.56 1022.82 1672.32 Q1020.39 1673.08 1017.61 1674.63 L1017.61 1669.91 Q1020.44 1668.78 1022.89 1668.2 Q1025.34 1667.62 1027.38 1667.62 Q1032.75 1667.62 1035.95 1670.31 Q1039.14 1672.99 1039.14 1677.48 Q1039.14 1679.61 1038.33 1681.53 Q1037.54 1683.43 1035.44 1686.02 Q1034.86 1686.69 1031.76 1689.91 Q1028.65 1693.11 1023.01 1698.87 Z" fill="#000000" fill-rule="evenodd" fill-opacity="1" /><path clip-path="url(#clip730)" d="M1049.19 1668.24 L1067.54 1668.24 L1067.54 1672.18 L1053.47 1672.18 L1053.47 1680.65 Q1054.49 1680.3 1055.51 1680.14 Q1056.52 1679.96 1057.54 1679.96 Q1063.33 1679.96 1066.71 1683.13 Q1070.09 1686.3 1070.09 1691.72 Q1070.09 1697.3 1066.62 1700.4 Q1063.15 1703.48 1056.83 1703.48 Q1054.65 1703.48 1052.38 1703.11 Q1050.14 1702.74 1047.73 1701.99 L1047.73 1697.3 Q1049.81 1698.43 1052.03 1698.99 Q1054.26 1699.54 1056.73 1699.54 Q1060.74 1699.54 1063.08 1697.43 Q1065.41 1695.33 1065.41 1691.72 Q1065.41 1688.11 1063.08 1686 Q1060.74 1683.89 1056.73 1683.89 Q1054.86 1683.89 1052.98 1684.31 Q1051.13 1684.73 1049.19 1685.61 L1049.19 1668.24 Z" fill="#000000" fill-rule="evenodd" fill-opacity="1" /><path clip-path="url(#clip730)" d="M1641.19 1671.32 Q1637.58 1671.32 1635.75 1674.89 Q1633.95 1678.43 1633.95 1685.56 Q1633.95 1692.67 1635.75 1696.23 Q1637.58 1699.77 1641.19 1699.77 Q1644.83 1699.77 1646.63 1696.23 Q1648.46 1692.67 1648.46 1685.56 Q1648.46 1678.43 1646.63 1674.89 Q1644.83 1671.32 1641.19 1671.32 M1641.19 1667.62 Q1647 1667.62 1650.06 1672.23 Q1653.14 1676.81 1653.14 1685.56 Q1653.14 1694.29 1650.06 1698.89 Q1647 1703.48 1641.19 1703.48 Q1635.38 1703.48 1632.3 1698.89 Q1629.25 1694.29 1629.25 1685.56 Q1629.25 1676.81 1632.3 1672.23 Q1635.38 1667.62 1641.19 1667.62 Z" fill="#000000" fill-rule="evenodd" fill-opacity="1" /><path clip-path="url(#clip730)" d="M1661.36 1696.93 L1666.24 1696.93 L1666.24 1702.8 L1661.36 1702.8 L1661.36 1696.93 Z" fill="#000000" fill-rule="evenodd" fill-opacity="1" /><path clip-path="url(#clip730)" d="M1686.42 1671.32 Q1682.81 1671.32 1680.99 1674.89 Q1679.18 1678.43 1679.18 1685.56 Q1679.18 1692.67 1680.99 1696.23 Q1682.81 1699.77 1686.42 1699.77 Q1690.06 1699.77 1691.86 1696.23 Q1693.69 1692.67 1693.69 1685.56 Q1693.69 1678.43 1691.86 1674.89 Q1690.06 1671.32 1686.42 1671.32 M1686.42 1667.62 Q1692.24 1667.62 1695.29 1672.23 Q1698.37 1676.81 1698.37 1685.56 Q1698.37 1694.29 1695.29 1698.89 Q1692.24 1703.48 1686.42 1703.48 Q1680.61 1703.48 1677.54 1698.89 Q1674.48 1694.29 1674.48 1685.56 Q1674.48 1676.81 1677.54 1672.23 Q1680.61 1667.62 1686.42 1667.62 Z" fill="#000000" fill-rule="evenodd" fill-opacity="1" /><path clip-path="url(#clip730)" d="M1706.63 1668.24 L1724.99 1668.24 L1724.99 1672.18 L1710.92 1672.18 L1710.92 1680.65 Q1711.93 1680.3 1712.95 1680.14 Q1713.97 1679.96 1714.99 1679.96 Q1720.78 1679.96 1724.16 1683.13 Q1727.54 1686.3 1727.54 1691.72 Q1727.54 1697.3 1724.06 1700.4 Q1720.59 1703.48 1714.27 1703.48 Q1712.1 1703.48 1709.83 1703.11 Q1707.58 1702.74 1705.17 1701.99 L1705.17 1697.3 Q1707.26 1698.43 1709.48 1698.99 Q1711.7 1699.54 1714.18 1699.54 Q1718.18 1699.54 1720.52 1697.43 Q1722.86 1695.33 1722.86 1691.72 Q1722.86 1688.11 1720.52 1686 Q1718.18 1683.89 1714.18 1683.89 Q1712.3 1683.89 1710.43 1684.31 Q1708.58 1684.73 1706.63 1685.61 L1706.63 1668.24 Z" fill="#000000" fill-rule="evenodd" fill-opacity="1" /><path clip-path="url(#clip730)" d="M1746.75 1671.32 Q1743.14 1671.32 1741.31 1674.89 Q1739.5 1678.43 1739.5 1685.56 Q1739.5 1692.67 1741.31 1696.23 Q1743.14 1699.77 1746.75 1699.77 Q1750.38 1699.77 1752.19 1696.23 Q1754.02 1692.67 1754.02 1685.56 Q1754.02 1678.43 1752.19 1674.89 Q1750.38 1671.32 1746.75 1671.32 M1746.75 1667.62 Q1752.56 1667.62 1755.61 1672.23 Q1758.69 1676.81 1758.69 1685.56 Q1758.69 1694.29 1755.61 1698.89 Q1752.56 1703.48 1746.75 1703.48 Q1740.94 1703.48 1737.86 1698.89 Q1734.8 1694.29 1734.8 1685.56 Q1734.8 1676.81 1737.86 1672.23 Q1740.94 1667.62 1746.75 1667.62 Z" fill="#000000" fill-rule="evenodd" fill-opacity="1" /><path clip-path="url(#clip730)" d="M2329.8 1671.32 Q2326.19 1671.32 2324.36 1674.89 Q2322.55 1678.43 2322.55 1685.56 Q2322.55 1692.67 2324.36 1696.23 Q2326.19 1699.77 2329.8 1699.77 Q2333.43 1699.77 2335.24 1696.23 Q2337.07 1692.67 2337.07 1685.56 Q2337.07 1678.43 2335.24 1674.89 Q2333.43 1671.32 2329.8 1671.32 M2329.8 1667.62 Q2335.61 1667.62 2338.66 1672.23 Q2341.74 1676.81 2341.74 1685.56 Q2341.74 1694.29 2338.66 1698.89 Q2335.61 1703.48 2329.8 1703.48 Q2323.99 1703.48 2320.91 1698.89 Q2317.85 1694.29 2317.85 1685.56 Q2317.85 1676.81 2320.91 1672.23 Q2323.99 1667.62 2329.8 1667.62 Z" fill="#000000" fill-rule="evenodd" fill-opacity="1" /><path clip-path="url(#clip730)" d="M2349.96 1696.93 L2354.84 1696.93 L2354.84 1702.8 L2349.96 1702.8 L2349.96 1696.93 Z" fill="#000000" fill-rule="evenodd" fill-opacity="1" /><path clip-path="url(#clip730)" d="M2375.03 1671.32 Q2371.42 1671.32 2369.59 1674.89 Q2367.78 1678.43 2367.78 1685.56 Q2367.78 1692.67 2369.59 1696.23 Q2371.42 1699.77 2375.03 1699.77 Q2378.66 1699.77 2380.47 1696.23 Q2382.3 1692.67 2382.3 1685.56 Q2382.3 1678.43 2380.47 1674.89 Q2378.66 1671.32 2375.03 1671.32 M2375.03 1667.62 Q2380.84 1667.62 2383.89 1672.23 Q2386.97 1676.81 2386.97 1685.56 Q2386.97 1694.29 2383.89 1698.89 Q2380.84 1703.48 2375.03 1703.48 Q2369.22 1703.48 2366.14 1698.89 Q2363.08 1694.29 2363.08 1685.56 Q2363.08 1676.81 2366.14 1672.23 Q2369.22 1667.62 2375.03 1667.62 Z" fill="#000000" fill-rule="evenodd" fill-opacity="1" /><path clip-path="url(#clip730)" d="M2394.01 1668.24 L2416.23 1668.24 L2416.23 1670.24 L2403.69 1702.8 L2398.8 1702.8 L2410.61 1672.18 L2394.01 1672.18 L2394.01 1668.24 Z" fill="#000000" fill-rule="evenodd" fill-opacity="1" /><path clip-path="url(#clip730)" d="M2425.4 1668.24 L2443.76 1668.24 L2443.76 1672.18 L2429.68 1672.18 L2429.68 1680.65 Q2430.7 1680.3 2431.72 1680.14 Q2432.74 1679.96 2433.76 1679.96 Q2439.54 1679.96 2442.92 1683.13 Q2446.3 1686.3 2446.3 1691.72 Q2446.3 1697.3 2442.83 1700.4 Q2439.36 1703.48 2433.04 1703.48 Q2430.86 1703.48 2428.59 1703.11 Q2426.35 1702.74 2423.94 1701.99 L2423.94 1697.3 Q2426.02 1698.43 2428.25 1698.99 Q2430.47 1699.54 2432.94 1699.54 Q2436.95 1699.54 2439.29 1697.43 Q2441.63 1695.33 2441.63 1691.72 Q2441.63 1688.11 2439.29 1686 Q2436.95 1683.89 2432.94 1683.89 Q2431.07 1683.89 2429.2 1684.31 Q2427.34 1684.73 2425.4 1685.61 L2425.4 1668.24 Z" fill="#000000" fill-rule="evenodd" fill-opacity="1" /><path clip-path="url(#clip730)" d="M3017.41 1671.32 Q3013.79 1671.32 3011.97 1674.89 Q3010.16 1678.43 3010.16 1685.56 Q3010.16 1692.67 3011.97 1696.23 Q3013.79 1699.77 3017.41 1699.77 Q3021.04 1699.77 3022.85 1696.23 Q3024.67 1692.67 3024.67 1685.56 Q3024.67 1678.43 3022.85 1674.89 Q3021.04 1671.32 3017.41 1671.32 M3017.41 1667.62 Q3023.22 1667.62 3026.27 1672.23 Q3029.35 1676.81 3029.35 1685.56 Q3029.35 1694.29 3026.27 1698.89 Q3023.22 1703.48 3017.41 1703.48 Q3011.6 1703.48 3008.52 1698.89 Q3005.46 1694.29 3005.46 1685.56 Q3005.46 1676.81 3008.52 1672.23 Q3011.6 1667.62 3017.41 1667.62 Z" fill="#000000" fill-rule="evenodd" fill-opacity="1" /><path clip-path="url(#clip730)" d="M3037.57 1696.93 L3042.45 1696.93 L3042.45 1702.8 L3037.57 1702.8 L3037.57 1696.93 Z" fill="#000000" fill-rule="evenodd" fill-opacity="1" /><path clip-path="url(#clip730)" d="M3053.45 1698.87 L3061.09 1698.87 L3061.09 1672.5 L3052.78 1674.17 L3052.78 1669.91 L3061.04 1668.24 L3065.72 1668.24 L3065.72 1698.87 L3073.35 1698.87 L3073.35 1702.8 L3053.45 1702.8 L3053.45 1698.87 Z" fill="#000000" fill-rule="evenodd" fill-opacity="1" /><path clip-path="url(#clip730)" d="M3092.8 1671.32 Q3089.19 1671.32 3087.36 1674.89 Q3085.55 1678.43 3085.55 1685.56 Q3085.55 1692.67 3087.36 1696.23 Q3089.19 1699.77 3092.8 1699.77 Q3096.43 1699.77 3098.24 1696.23 Q3100.07 1692.67 3100.07 1685.56 Q3100.07 1678.43 3098.24 1674.89 Q3096.43 1671.32 3092.8 1671.32 M3092.8 1667.62 Q3098.61 1667.62 3101.66 1672.23 Q3104.74 1676.81 3104.74 1685.56 Q3104.74 1694.29 3101.66 1698.89 Q3098.61 1703.48 3092.8 1703.48 Q3086.99 1703.48 3083.91 1698.89 Q3080.85 1694.29 3080.85 1685.56 Q3080.85 1676.81 3083.91 1672.23 Q3086.99 1667.62 3092.8 1667.62 Z" fill="#000000" fill-rule="evenodd" fill-opacity="1" /><path clip-path="url(#clip730)" d="M3122.96 1671.32 Q3119.35 1671.32 3117.52 1674.89 Q3115.72 1678.43 3115.72 1685.56 Q3115.72 1692.67 3117.52 1696.23 Q3119.35 1699.77 3122.96 1699.77 Q3126.59 1699.77 3128.4 1696.23 Q3130.23 1692.67 3130.23 1685.56 Q3130.23 1678.43 3128.4 1674.89 Q3126.59 1671.32 3122.96 1671.32 M3122.96 1667.62 Q3128.77 1667.62 3131.83 1672.23 Q3134.91 1676.81 3134.91 1685.56 Q3134.91 1694.29 3131.83 1698.89 Q3128.77 1703.48 3122.96 1703.48 Q3117.15 1703.48 3114.07 1698.89 Q3111.02 1694.29 3111.02 1685.56 Q3111.02 1676.81 3114.07 1672.23 Q3117.15 1667.62 3122.96 1667.62 Z" fill="#000000" fill-rule="evenodd" fill-opacity="1" /><path clip-path="url(#clip730)" d="M1548.12 1748.63 L1548.12 1766.49 L1556.2 1766.49 Q1560.69 1766.49 1563.14 1764.16 Q1565.59 1761.84 1565.59 1757.54 Q1565.59 1753.28 1563.14 1750.96 Q1560.69 1748.63 1556.2 1748.63 L1548.12 1748.63 M1541.69 1743.35 L1556.2 1743.35 Q1564.19 1743.35 1568.26 1746.98 Q1572.37 1750.57 1572.37 1757.54 Q1572.37 1764.58 1568.26 1768.18 Q1564.19 1771.77 1556.2 1771.77 L1548.12 1771.77 L1548.12 1790.87 L1541.69 1790.87 L1541.69 1743.35 Z" fill="#000000" fill-rule="evenodd" fill-opacity="1" /><path clip-path="url(#clip730)" d="M1592.23 1759.33 Q1587.52 1759.33 1584.78 1763.02 Q1582.05 1766.68 1582.05 1773.08 Q1582.05 1779.47 1584.75 1783.17 Q1587.49 1786.83 1592.23 1786.83 Q1596.91 1786.83 1599.65 1783.13 Q1602.38 1779.44 1602.38 1773.08 Q1602.38 1766.74 1599.65 1763.05 Q1596.91 1759.33 1592.23 1759.33 M1592.23 1754.36 Q1599.87 1754.36 1604.23 1759.33 Q1608.59 1764.29 1608.59 1773.08 Q1608.59 1781.83 1604.23 1786.83 Q1599.87 1791.79 1592.23 1791.79 Q1584.56 1791.79 1580.2 1786.83 Q1575.87 1781.83 1575.87 1773.08 Q1575.87 1764.29 1580.2 1759.33 Q1584.56 1754.36 1592.23 1754.36 Z" fill="#000000" fill-rule="evenodd" fill-opacity="1" /><path clip-path="url(#clip730)" d="M1641.02 1756.27 L1641.02 1761.81 Q1638.54 1760.54 1635.87 1759.9 Q1633.19 1759.26 1630.33 1759.26 Q1625.97 1759.26 1623.77 1760.6 Q1621.61 1761.94 1621.61 1764.61 Q1621.61 1766.65 1623.17 1767.82 Q1624.73 1768.97 1629.44 1770.02 L1631.44 1770.47 Q1637.68 1771.8 1640.29 1774.25 Q1642.93 1776.67 1642.93 1781.03 Q1642.93 1786 1638.99 1788.9 Q1635.07 1791.79 1628.2 1791.79 Q1625.33 1791.79 1622.21 1791.22 Q1619.13 1790.68 1615.69 1789.56 L1615.69 1783.52 Q1618.94 1785.2 1622.09 1786.06 Q1625.24 1786.89 1628.32 1786.89 Q1632.46 1786.89 1634.69 1785.49 Q1636.92 1784.06 1636.92 1781.48 Q1636.92 1779.09 1635.3 1777.82 Q1633.7 1776.55 1628.26 1775.37 L1626.22 1774.89 Q1620.78 1773.75 1618.36 1771.39 Q1615.94 1769 1615.94 1764.86 Q1615.94 1759.84 1619.51 1757.1 Q1623.07 1754.36 1629.63 1754.36 Q1632.88 1754.36 1635.74 1754.84 Q1638.61 1755.32 1641.02 1756.27 Z" fill="#000000" fill-rule="evenodd" fill-opacity="1" /><path clip-path="url(#clip730)" d="M1652.26 1755.22 L1658.12 1755.22 L1658.12 1790.87 L1652.26 1790.87 L1652.26 1755.22 M1652.26 1741.34 L1658.12 1741.34 L1658.12 1748.76 L1652.26 1748.76 L1652.26 1741.34 Z" fill="#000000" fill-rule="evenodd" fill-opacity="1" /><path clip-path="url(#clip730)" d="M1676.16 1745.1 L1676.16 1755.22 L1688.23 1755.22 L1688.23 1759.77 L1676.16 1759.77 L1676.16 1779.12 Q1676.16 1783.48 1677.34 1784.73 Q1678.55 1785.97 1682.21 1785.97 L1688.23 1785.97 L1688.23 1790.87 L1682.21 1790.87 Q1675.43 1790.87 1672.85 1788.35 Q1670.27 1785.81 1670.27 1779.12 L1670.27 1759.77 L1665.98 1759.77 L1665.98 1755.22 L1670.27 1755.22 L1670.27 1745.1 L1676.16 1745.1 Z" fill="#000000" fill-rule="evenodd" fill-opacity="1" /><path clip-path="url(#clip730)" d="M1695.93 1755.22 L1701.79 1755.22 L1701.79 1790.87 L1695.93 1790.87 L1695.93 1755.22 M1695.93 1741.34 L1701.79 1741.34 L1701.79 1748.76 L1695.93 1748.76 L1695.93 1741.34 Z" fill="#000000" fill-rule="evenodd" fill-opacity="1" /><path clip-path="url(#clip730)" d="M1727.85 1759.33 Q1723.14 1759.33 1720.4 1763.02 Q1717.67 1766.68 1717.67 1773.08 Q1717.67 1779.47 1720.37 1783.17 Q1723.11 1786.83 1727.85 1786.83 Q1732.53 1786.83 1735.27 1783.13 Q1738.01 1779.44 1738.01 1773.08 Q1738.01 1766.74 1735.27 1763.05 Q1732.53 1759.33 1727.85 1759.33 M1727.85 1754.36 Q1735.49 1754.36 1739.85 1759.33 Q1744.21 1764.29 1744.21 1773.08 Q1744.21 1781.83 1739.85 1786.83 Q1735.49 1791.79 1727.85 1791.79 Q1720.18 1791.79 1715.82 1786.83 Q1711.49 1781.83 1711.49 1773.08 Q1711.49 1764.29 1715.82 1759.33 Q1720.18 1754.36 1727.85 1754.36 Z" fill="#000000" fill-rule="evenodd" fill-opacity="1" /><path clip-path="url(#clip730)" d="M1783.55 1769.35 L1783.55 1790.87 L1777.7 1790.87 L1777.7 1769.54 Q1777.7 1764.48 1775.72 1761.97 Q1773.75 1759.45 1769.8 1759.45 Q1765.06 1759.45 1762.32 1762.48 Q1759.59 1765.5 1759.59 1770.72 L1759.59 1790.87 L1753.7 1790.87 L1753.7 1755.22 L1759.59 1755.22 L1759.59 1760.76 Q1761.69 1757.54 1764.52 1755.95 Q1767.38 1754.36 1771.11 1754.36 Q1777.25 1754.36 1780.4 1758.18 Q1783.55 1761.97 1783.55 1769.35 Z" fill="#000000" fill-rule="evenodd" fill-opacity="1" /><path clip-path="url(#clip730)" d="M1845.59 1755.22 L1832.7 1772.57 L1846.25 1790.87 L1839.35 1790.87 L1828.97 1776.86 L1818.6 1790.87 L1811.69 1790.87 L1825.53 1772.22 L1812.87 1755.22 L1819.77 1755.22 L1829.23 1767.92 L1838.68 1755.22 L1845.59 1755.22 Z" fill="#000000" fill-rule="evenodd" fill-opacity="1" /><polyline clip-path="url(#clip732)" style="stroke:#000000; stroke-linecap:butt; stroke-linejoin:round; stroke-width:2; stroke-opacity:0.1; fill:none" points="
  235.187,1541.36 3152.76,1541.36 
  "/>
<polyline clip-path="url(#clip732)" style="stroke:#000000; stroke-linecap:butt; stroke-linejoin:round; stroke-width:2; stroke-opacity:0.1; fill:none" points="
  235.187,1181.57 3152.76,1181.57 
  "/>
<polyline clip-path="url(#clip732)" style="stroke:#000000; stroke-linecap:butt; stroke-linejoin:round; stroke-width:2; stroke-opacity:0.1; fill:none" points="
  235.187,821.785 3152.76,821.785 
  "/>
<polyline clip-path="url(#clip732)" style="stroke:#000000; stroke-linecap:butt; stroke-linejoin:round; stroke-width:2; stroke-opacity:0.1; fill:none" points="
  235.187,461.997 3152.76,461.997 
  "/>
<polyline clip-path="url(#clip730)" style="stroke:#000000; stroke-linecap:butt; stroke-linejoin:round; stroke-width:4; stroke-opacity:1; fill:none" points="
  235.187,1634 235.187,114.022 
  "/>
<polyline clip-path="url(#clip730)" style="stroke:#000000; stroke-linecap:butt; stroke-linejoin:round; stroke-width:4; stroke-opacity:1; fill:none" points="
  235.187,1541.36 254.084,1541.36 
  "/>
<polyline clip-path="url(#clip730)" style="stroke:#000000; stroke-linecap:butt; stroke-linejoin:round; stroke-width:4; stroke-opacity:1; fill:none" points="
  235.187,1181.57 254.084,1181.57 
  "/>
<polyline clip-path="url(#clip730)" style="stroke:#000000; stroke-linecap:butt; stroke-linejoin:round; stroke-width:4; stroke-opacity:1; fill:none" points="
  235.187,821.785 254.084,821.785 
  "/>
<polyline clip-path="url(#clip730)" style="stroke:#000000; stroke-linecap:butt; stroke-linejoin:round; stroke-width:4; stroke-opacity:1; fill:none" points="
  235.187,461.997 254.084,461.997 
  "/>
<path clip-path="url(#clip730)" d="M106.053 1557.92 L106.053 1553.67 Q107.812 1554.5 109.618 1554.94 Q111.423 1555.38 113.159 1555.38 Q117.789 1555.38 120.219 1552.28 Q122.673 1549.15 123.02 1542.81 Q121.678 1544.8 119.617 1545.86 Q117.557 1546.93 115.057 1546.93 Q109.872 1546.93 106.84 1543.8 Q103.831 1540.66 103.831 1535.22 Q103.831 1529.89 106.979 1526.67 Q110.127 1523.46 115.358 1523.46 Q121.354 1523.46 124.502 1528.06 Q127.673 1532.65 127.673 1541.4 Q127.673 1549.57 123.784 1554.45 Q119.918 1559.31 113.368 1559.31 Q111.608 1559.31 109.803 1558.97 Q107.997 1558.62 106.053 1557.92 M115.358 1543.27 Q118.506 1543.27 120.335 1541.12 Q122.187 1538.97 122.187 1535.22 Q122.187 1531.49 120.335 1529.34 Q118.506 1527.16 115.358 1527.16 Q112.21 1527.16 110.358 1529.34 Q108.53 1531.49 108.53 1535.22 Q108.53 1538.97 110.358 1541.12 Q112.21 1543.27 115.358 1543.27 Z" fill="#000000" fill-rule="evenodd" fill-opacity="1" /><path clip-path="url(#clip730)" d="M134.895 1524.08 L157.117 1524.08 L157.117 1526.07 L144.571 1558.64 L139.687 1558.64 L151.492 1528.02 L134.895 1528.02 L134.895 1524.08 Z" fill="#000000" fill-rule="evenodd" fill-opacity="1" /><path clip-path="url(#clip730)" d="M166.284 1524.08 L184.64 1524.08 L184.64 1528.02 L170.566 1528.02 L170.566 1536.49 Q171.585 1536.14 172.603 1535.98 Q173.622 1535.79 174.64 1535.79 Q180.427 1535.79 183.807 1538.97 Q187.187 1542.14 187.187 1547.55 Q187.187 1553.13 183.714 1556.23 Q180.242 1559.31 173.923 1559.31 Q171.747 1559.31 169.478 1558.94 Q167.233 1558.57 164.826 1557.83 L164.826 1553.13 Q166.909 1554.27 169.131 1554.82 Q171.353 1555.38 173.83 1555.38 Q177.835 1555.38 180.173 1553.27 Q182.511 1551.17 182.511 1547.55 Q182.511 1543.94 180.173 1541.84 Q177.835 1539.73 173.83 1539.73 Q171.955 1539.73 170.08 1540.15 Q168.228 1540.56 166.284 1541.44 L166.284 1524.08 Z" fill="#000000" fill-rule="evenodd" fill-opacity="1" /><path clip-path="url(#clip730)" d="M105.057 1198.14 L105.057 1193.88 Q106.817 1194.71 108.622 1195.15 Q110.428 1195.59 112.164 1195.59 Q116.793 1195.59 119.224 1192.49 Q121.678 1189.36 122.025 1183.02 Q120.682 1185.01 118.622 1186.08 Q116.562 1187.14 114.062 1187.14 Q108.877 1187.14 105.844 1184.02 Q102.835 1180.87 102.835 1175.43 Q102.835 1170.1 105.983 1166.89 Q109.131 1163.67 114.363 1163.67 Q120.358 1163.67 123.506 1168.28 Q126.678 1172.86 126.678 1181.61 Q126.678 1189.78 122.789 1194.66 Q118.923 1199.52 112.372 1199.52 Q110.613 1199.52 108.807 1199.18 Q107.002 1198.83 105.057 1198.14 M114.363 1183.48 Q117.511 1183.48 119.34 1181.33 Q121.192 1179.18 121.192 1175.43 Q121.192 1171.7 119.34 1169.55 Q117.511 1167.37 114.363 1167.37 Q111.215 1167.37 109.363 1169.55 Q107.534 1171.7 107.534 1175.43 Q107.534 1179.18 109.363 1181.33 Q111.215 1183.48 114.363 1183.48 Z" fill="#000000" fill-rule="evenodd" fill-opacity="1" /><path clip-path="url(#clip730)" d="M145.08 1182.44 Q141.747 1182.44 139.826 1184.22 Q137.928 1186.01 137.928 1189.13 Q137.928 1192.26 139.826 1194.04 Q141.747 1195.82 145.08 1195.82 Q148.414 1195.82 150.335 1194.04 Q152.256 1192.23 152.256 1189.13 Q152.256 1186.01 150.335 1184.22 Q148.437 1182.44 145.08 1182.44 M140.404 1180.45 Q137.395 1179.71 135.705 1177.65 Q134.039 1175.59 134.039 1172.63 Q134.039 1168.48 136.978 1166.08 Q139.941 1163.67 145.08 1163.67 Q150.242 1163.67 153.182 1166.08 Q156.122 1168.48 156.122 1172.63 Q156.122 1175.59 154.432 1177.65 Q152.765 1179.71 149.779 1180.45 Q153.159 1181.24 155.034 1183.53 Q156.932 1185.82 156.932 1189.13 Q156.932 1194.15 153.853 1196.84 Q150.798 1199.52 145.08 1199.52 Q139.363 1199.52 136.284 1196.84 Q133.229 1194.15 133.229 1189.13 Q133.229 1185.82 135.127 1183.53 Q137.025 1181.24 140.404 1180.45 M138.691 1173.07 Q138.691 1175.75 140.358 1177.26 Q142.048 1178.76 145.08 1178.76 Q148.09 1178.76 149.779 1177.26 Q151.492 1175.75 151.492 1173.07 Q151.492 1170.38 149.779 1168.88 Q148.09 1167.37 145.08 1167.37 Q142.048 1167.37 140.358 1168.88 Q138.691 1170.38 138.691 1173.07 Z" fill="#000000" fill-rule="evenodd" fill-opacity="1" /><path clip-path="url(#clip730)" d="M175.242 1167.37 Q171.631 1167.37 169.802 1170.94 Q167.997 1174.48 167.997 1181.61 Q167.997 1188.71 169.802 1192.28 Q171.631 1195.82 175.242 1195.82 Q178.876 1195.82 180.682 1192.28 Q182.511 1188.71 182.511 1181.61 Q182.511 1174.48 180.682 1170.94 Q178.876 1167.37 175.242 1167.37 M175.242 1163.67 Q181.052 1163.67 184.108 1168.28 Q187.187 1172.86 187.187 1181.61 Q187.187 1190.34 184.108 1194.94 Q181.052 1199.52 175.242 1199.52 Q169.432 1199.52 166.353 1194.94 Q163.298 1190.34 163.298 1181.61 Q163.298 1172.86 166.353 1168.28 Q169.432 1163.67 175.242 1163.67 Z" fill="#000000" fill-rule="evenodd" fill-opacity="1" /><path clip-path="url(#clip730)" d="M106.053 838.348 L106.053 834.088 Q107.812 834.922 109.618 835.361 Q111.423 835.801 113.159 835.801 Q117.789 835.801 120.219 832.699 Q122.673 829.574 123.02 823.232 Q121.678 825.223 119.617 826.287 Q117.557 827.352 115.057 827.352 Q109.872 827.352 106.84 824.227 Q103.831 821.079 103.831 815.639 Q103.831 810.315 106.979 807.098 Q110.127 803.88 115.358 803.88 Q121.354 803.88 124.502 808.487 Q127.673 813.07 127.673 821.82 Q127.673 829.991 123.784 834.875 Q119.918 839.736 113.368 839.736 Q111.608 839.736 109.803 839.389 Q107.997 839.042 106.053 838.348 M115.358 823.695 Q118.506 823.695 120.335 821.542 Q122.187 819.389 122.187 815.639 Q122.187 811.913 120.335 809.76 Q118.506 807.584 115.358 807.584 Q112.21 807.584 110.358 809.76 Q108.53 811.913 108.53 815.639 Q108.53 819.389 110.358 821.542 Q112.21 823.695 115.358 823.695 Z" fill="#000000" fill-rule="evenodd" fill-opacity="1" /><path clip-path="url(#clip730)" d="M146.076 822.653 Q142.742 822.653 140.821 824.436 Q138.923 826.218 138.923 829.343 Q138.923 832.468 140.821 834.25 Q142.742 836.033 146.076 836.033 Q149.409 836.033 151.33 834.25 Q153.252 832.445 153.252 829.343 Q153.252 826.218 151.33 824.436 Q149.432 822.653 146.076 822.653 M141.4 820.663 Q138.391 819.922 136.701 817.862 Q135.034 815.801 135.034 812.838 Q135.034 808.695 137.974 806.288 Q140.937 803.88 146.076 803.88 Q151.238 803.88 154.177 806.288 Q157.117 808.695 157.117 812.838 Q157.117 815.801 155.427 817.862 Q153.761 819.922 150.775 820.663 Q154.154 821.45 156.029 823.741 Q157.927 826.033 157.927 829.343 Q157.927 834.366 154.849 837.051 Q151.793 839.736 146.076 839.736 Q140.358 839.736 137.279 837.051 Q134.224 834.366 134.224 829.343 Q134.224 826.033 136.122 823.741 Q138.02 821.45 141.4 820.663 M139.687 813.278 Q139.687 815.963 141.353 817.468 Q143.043 818.973 146.076 818.973 Q149.085 818.973 150.775 817.468 Q152.488 815.963 152.488 813.278 Q152.488 810.593 150.775 809.088 Q149.085 807.584 146.076 807.584 Q143.043 807.584 141.353 809.088 Q139.687 810.593 139.687 813.278 Z" fill="#000000" fill-rule="evenodd" fill-opacity="1" /><path clip-path="url(#clip730)" d="M166.284 804.505 L184.64 804.505 L184.64 808.44 L170.566 808.44 L170.566 816.913 Q171.585 816.565 172.603 816.403 Q173.622 816.218 174.64 816.218 Q180.427 816.218 183.807 819.389 Q187.187 822.561 187.187 827.977 Q187.187 833.556 183.714 836.658 Q180.242 839.736 173.923 839.736 Q171.747 839.736 169.478 839.366 Q167.233 838.996 164.826 838.255 L164.826 833.556 Q166.909 834.69 169.131 835.246 Q171.353 835.801 173.83 835.801 Q177.835 835.801 180.173 833.695 Q182.511 831.588 182.511 827.977 Q182.511 824.366 180.173 822.26 Q177.835 820.153 173.83 820.153 Q171.955 820.153 170.08 820.57 Q168.228 820.987 166.284 821.866 L166.284 804.505 Z" fill="#000000" fill-rule="evenodd" fill-opacity="1" /><path clip-path="url(#clip730)" d="M105.057 478.559 L105.057 474.3 Q106.817 475.133 108.622 475.573 Q110.428 476.013 112.164 476.013 Q116.793 476.013 119.224 472.911 Q121.678 469.786 122.025 463.443 Q120.682 465.434 118.622 466.499 Q116.562 467.564 114.062 467.564 Q108.877 467.564 105.844 464.439 Q102.835 461.291 102.835 455.851 Q102.835 450.527 105.983 447.309 Q109.131 444.092 114.363 444.092 Q120.358 444.092 123.506 448.698 Q126.678 453.282 126.678 462.031 Q126.678 470.203 122.789 475.087 Q118.923 479.948 112.372 479.948 Q110.613 479.948 108.807 479.601 Q107.002 479.254 105.057 478.559 M114.363 463.906 Q117.511 463.906 119.34 461.754 Q121.192 459.601 121.192 455.851 Q121.192 452.124 119.34 449.971 Q117.511 447.795 114.363 447.795 Q111.215 447.795 109.363 449.971 Q107.534 452.124 107.534 455.851 Q107.534 459.601 109.363 461.754 Q111.215 463.906 114.363 463.906 Z" fill="#000000" fill-rule="evenodd" fill-opacity="1" /><path clip-path="url(#clip730)" d="M135.219 478.559 L135.219 474.3 Q136.978 475.133 138.784 475.573 Q140.59 476.013 142.326 476.013 Q146.955 476.013 149.386 472.911 Q151.84 469.786 152.187 463.443 Q150.844 465.434 148.784 466.499 Q146.724 467.564 144.224 467.564 Q139.039 467.564 136.006 464.439 Q132.997 461.291 132.997 455.851 Q132.997 450.527 136.145 447.309 Q139.293 444.092 144.525 444.092 Q150.52 444.092 153.668 448.698 Q156.839 453.282 156.839 462.031 Q156.839 470.203 152.951 475.087 Q149.085 479.948 142.534 479.948 Q140.775 479.948 138.969 479.601 Q137.164 479.254 135.219 478.559 M144.525 463.906 Q147.673 463.906 149.502 461.754 Q151.353 459.601 151.353 455.851 Q151.353 452.124 149.502 449.971 Q147.673 447.795 144.525 447.795 Q141.377 447.795 139.525 449.971 Q137.696 452.124 137.696 455.851 Q137.696 459.601 139.525 461.754 Q141.377 463.906 144.525 463.906 Z" fill="#000000" fill-rule="evenodd" fill-opacity="1" /><path clip-path="url(#clip730)" d="M175.242 447.795 Q171.631 447.795 169.802 451.36 Q167.997 454.902 167.997 462.031 Q167.997 469.138 169.802 472.703 Q171.631 476.244 175.242 476.244 Q178.876 476.244 180.682 472.703 Q182.511 469.138 182.511 462.031 Q182.511 454.902 180.682 451.36 Q178.876 447.795 175.242 447.795 M175.242 444.092 Q181.052 444.092 184.108 448.698 Q187.187 453.282 187.187 462.031 Q187.187 470.758 184.108 475.365 Q181.052 479.948 175.242 479.948 Q169.432 479.948 166.353 475.365 Q163.298 470.758 163.298 462.031 Q163.298 453.282 166.353 448.698 Q169.432 444.092 175.242 444.092 Z" fill="#000000" fill-rule="evenodd" fill-opacity="1" /><path clip-path="url(#clip730)" d="M-6.94084 1078.83 L-6.94084 1038.63 L-1.52999 1038.63 L-1.52999 1055.5 L40.5792 1055.5 L40.5792 1061.96 L-1.52999 1061.96 L-1.52999 1078.83 L-6.94084 1078.83 Z" fill="#000000" fill-rule="evenodd" fill-opacity="1" /><path clip-path="url(#clip730)" d="M21.2911 1013.26 L24.1556 1013.26 L24.1556 1040.19 Q30.2031 1039.81 33.3859 1036.56 Q36.5369 1033.28 36.5369 1027.46 Q36.5369 1024.09 35.7094 1020.93 Q34.8819 1017.75 33.2268 1014.63 L38.7649 1014.63 Q40.1017 1017.78 40.802 1021.09 Q41.5022 1024.4 41.5022 1027.81 Q41.5022 1036.34 36.5369 1041.34 Q31.5717 1046.3 23.1053 1046.3 Q14.3524 1046.3 9.22805 1041.59 Q4.07183 1036.85 4.07183 1028.83 Q4.07183 1021.63 8.7188 1017.46 Q13.3339 1013.26 21.2911 1013.26 M19.5723 1019.12 Q14.7662 1019.18 11.9016 1021.83 Q9.03708 1024.44 9.03708 1028.76 Q9.03708 1033.67 11.8062 1036.63 Q14.5752 1039.55 19.6042 1040 L19.5723 1019.12 Z" fill="#000000" fill-rule="evenodd" fill-opacity="1" /><path clip-path="url(#clip730)" d="M11.7743 975.897 Q7.8276 973.7 5.94971 970.645 Q4.07183 967.589 4.07183 963.452 Q4.07183 957.882 7.98674 954.858 Q11.8698 951.834 19.0631 951.834 L40.5792 951.834 L40.5792 957.723 L19.254 957.723 Q14.1296 957.723 11.647 959.537 Q9.1644 961.351 9.1644 965.075 Q9.1644 969.626 12.1881 972.268 Q15.2118 974.91 20.4317 974.91 L40.5792 974.91 L40.5792 980.798 L19.254 980.798 Q14.0978 980.798 11.647 982.612 Q9.1644 984.427 9.1644 988.214 Q9.1644 992.702 12.2199 995.344 Q15.2436 997.986 20.4317 997.986 L40.5792 997.986 L40.5792 1003.87 L4.9312 1003.87 L4.9312 997.986 L10.4694 997.986 Q7.19103 995.98 5.63143 993.18 Q4.07183 990.379 4.07183 986.527 Q4.07183 982.644 6.0452 979.939 Q8.01857 977.202 11.7743 975.897 Z" fill="#000000" fill-rule="evenodd" fill-opacity="1" /><path clip-path="url(#clip730)" d="M35.232 934.488 L54.1381 934.488 L54.1381 940.376 L4.9312 940.376 L4.9312 934.488 L10.3421 934.488 Q7.1592 932.642 5.63143 929.841 Q4.07183 927.008 4.07183 923.093 Q4.07183 916.6 9.22805 912.558 Q14.3843 908.484 22.787 908.484 Q31.1897 908.484 36.346 912.558 Q41.5022 916.6 41.5022 923.093 Q41.5022 927.008 39.9744 929.841 Q38.4148 932.642 35.232 934.488 M22.787 914.563 Q16.3258 914.563 12.6655 917.237 Q8.97342 919.878 8.97342 924.525 Q8.97342 929.172 12.6655 931.846 Q16.3258 934.488 22.787 934.488 Q29.2482 934.488 32.9403 931.846 Q36.6006 929.172 36.6006 924.525 Q36.6006 919.878 32.9403 917.237 Q29.2482 914.563 22.787 914.563 Z" fill="#000000" fill-rule="evenodd" fill-opacity="1" /><path clip-path="url(#clip730)" d="M21.2911 868.284 L24.1556 868.284 L24.1556 895.211 Q30.2031 894.829 33.3859 891.583 Q36.5369 888.304 36.5369 882.48 Q36.5369 879.106 35.7094 875.955 Q34.8819 872.772 33.2268 869.653 L38.7649 869.653 Q40.1017 872.804 40.802 876.114 Q41.5022 879.424 41.5022 882.83 Q41.5022 891.36 36.5369 896.357 Q31.5717 901.322 23.1053 901.322 Q14.3524 901.322 9.22805 896.612 Q4.07183 891.869 4.07183 883.849 Q4.07183 876.655 8.7188 872.486 Q13.3339 868.284 21.2911 868.284 M19.5723 874.141 Q14.7662 874.204 11.9016 876.846 Q9.03708 879.456 9.03708 883.785 Q9.03708 888.686 11.8062 891.646 Q14.5752 894.575 19.6042 895.02 L19.5723 874.141 Z" fill="#000000" fill-rule="evenodd" fill-opacity="1" /><path clip-path="url(#clip730)" d="M10.4057 838.015 Q9.83279 839.002 9.57817 840.18 Q9.29171 841.326 9.29171 842.726 Q9.29171 847.691 12.5382 850.365 Q15.7529 853.007 21.8003 853.007 L40.5792 853.007 L40.5792 858.895 L4.9312 858.895 L4.9312 853.007 L10.4694 853.007 Q7.22285 851.161 5.66326 848.201 Q4.07183 845.24 4.07183 841.007 Q4.07183 840.403 4.16732 839.67 Q4.23097 838.938 4.39012 838.047 L10.4057 838.015 Z" fill="#000000" fill-rule="evenodd" fill-opacity="1" /><path clip-path="url(#clip730)" d="M22.6597 815.672 Q22.6597 822.77 24.2829 825.507 Q25.9062 828.244 29.8211 828.244 Q32.9403 828.244 34.7864 826.207 Q36.6006 824.138 36.6006 820.605 Q36.6006 815.735 33.1631 812.807 Q29.6938 809.847 23.9647 809.847 L22.6597 809.847 L22.6597 815.672 M20.2407 803.991 L40.5792 803.991 L40.5792 809.847 L35.1683 809.847 Q38.4148 811.852 39.9744 814.844 Q41.5022 817.836 41.5022 822.165 Q41.5022 827.639 38.4466 830.886 Q35.3593 834.101 30.2031 834.101 Q24.1875 834.101 21.1319 830.09 Q18.0764 826.048 18.0764 818.059 L18.0764 809.847 L17.5035 809.847 Q13.4612 809.847 11.2651 812.521 Q9.03708 815.163 9.03708 819.969 Q9.03708 823.024 9.76914 825.921 Q10.5012 828.817 11.9653 831.491 L6.55446 831.491 Q5.31314 828.276 4.7084 825.252 Q4.07183 822.228 4.07183 819.364 Q4.07183 811.63 8.08223 807.81 Q12.0926 803.991 20.2407 803.991 Z" fill="#000000" fill-rule="evenodd" fill-opacity="1" /><path clip-path="url(#clip730)" d="M-5.19027 786.135 L4.9312 786.135 L4.9312 774.072 L9.48268 774.072 L9.48268 786.135 L28.8344 786.135 Q33.1949 786.135 34.4363 784.957 Q35.6776 783.748 35.6776 780.087 L35.6776 774.072 L40.5792 774.072 L40.5792 780.087 Q40.5792 786.867 38.0647 789.445 Q35.5184 792.023 28.8344 792.023 L9.48268 792.023 L9.48268 796.32 L4.9312 796.32 L4.9312 792.023 L-5.19027 792.023 L-5.19027 786.135 Z" fill="#000000" fill-rule="evenodd" fill-opacity="1" /><path clip-path="url(#clip730)" d="M26.5109 766.974 L4.9312 766.974 L4.9312 761.118 L26.2881 761.118 Q31.3489 761.118 33.8952 759.144 Q36.4096 757.171 36.4096 753.224 Q36.4096 748.482 33.3859 745.744 Q30.3622 742.975 25.1423 742.975 L4.9312 742.975 L4.9312 737.119 L40.5792 737.119 L40.5792 742.975 L35.1046 742.975 Q38.3512 745.108 39.9426 747.941 Q41.5022 750.742 41.5022 754.466 Q41.5022 760.608 37.6828 763.791 Q33.8633 766.974 26.5109 766.974 M4.07183 752.238 L4.07183 752.238 Z" fill="#000000" fill-rule="evenodd" fill-opacity="1" /><path clip-path="url(#clip730)" d="M10.4057 704.399 Q9.83279 705.386 9.57817 706.564 Q9.29171 707.709 9.29171 709.11 Q9.29171 714.075 12.5382 716.749 Q15.7529 719.39 21.8003 719.39 L40.5792 719.39 L40.5792 725.279 L4.9312 725.279 L4.9312 719.39 L10.4694 719.39 Q7.22285 717.544 5.66326 714.584 Q4.07183 711.624 4.07183 707.391 Q4.07183 706.786 4.16732 706.054 Q4.23097 705.322 4.39012 704.431 L10.4057 704.399 Z" fill="#000000" fill-rule="evenodd" fill-opacity="1" /><path clip-path="url(#clip730)" d="M21.2911 669.197 L24.1556 669.197 L24.1556 696.124 Q30.2031 695.742 33.3859 692.495 Q36.5369 689.217 36.5369 683.392 Q36.5369 680.019 35.7094 676.868 Q34.8819 673.685 33.2268 670.566 L38.7649 670.566 Q40.1017 673.717 40.802 677.027 Q41.5022 680.337 41.5022 683.743 Q41.5022 692.273 36.5369 697.27 Q31.5717 702.235 23.1053 702.235 Q14.3524 702.235 9.22805 697.524 Q4.07183 692.782 4.07183 684.761 Q4.07183 677.568 8.7188 673.398 Q13.3339 669.197 21.2911 669.197 M19.5723 675.053 Q14.7662 675.117 11.9016 677.759 Q9.03708 680.369 9.03708 684.697 Q9.03708 689.599 11.8062 692.559 Q14.5752 695.487 19.6042 695.933 L19.5723 675.053 Z" fill="#000000" fill-rule="evenodd" fill-opacity="1" /><path clip-path="url(#clip730)" d="M1087.71 12.096 L1138.88 12.096 L1138.88 18.9825 L1117.41 18.9825 L1117.41 72.576 L1109.18 72.576 L1109.18 18.9825 L1087.71 18.9825 L1087.71 12.096 Z" fill="#000000" fill-rule="evenodd" fill-opacity="1" /><path clip-path="url(#clip730)" d="M1171.16 48.0275 L1171.16 51.6733 L1136.89 51.6733 Q1137.38 59.3701 1141.51 63.421 Q1145.68 67.4314 1153.09 67.4314 Q1157.39 67.4314 1161.4 66.3781 Q1165.45 65.3249 1169.42 63.2184 L1169.42 70.267 Q1165.41 71.9684 1161.2 72.8596 Q1156.98 73.7508 1152.65 73.7508 Q1141.79 73.7508 1135.43 67.4314 Q1129.11 61.1119 1129.11 50.3365 Q1129.11 39.1965 1135.11 32.6746 Q1141.14 26.1121 1151.35 26.1121 Q1160.51 26.1121 1165.81 32.0264 Q1171.16 37.9003 1171.16 48.0275 M1163.71 45.84 Q1163.63 39.7232 1160.26 36.0774 Q1156.94 32.4315 1151.43 32.4315 Q1145.2 32.4315 1141.43 35.9558 Q1137.7 39.4801 1137.13 45.8805 L1163.71 45.84 Z" fill="#000000" fill-rule="evenodd" fill-opacity="1" /><path clip-path="url(#clip730)" d="M1218.72 35.9153 Q1221.51 30.8922 1225.4 28.5022 Q1229.29 26.1121 1234.56 26.1121 Q1241.65 26.1121 1245.5 31.0947 Q1249.34 36.0368 1249.34 45.1919 L1249.34 72.576 L1241.85 72.576 L1241.85 45.4349 Q1241.85 38.913 1239.54 35.7533 Q1237.23 32.5936 1232.49 32.5936 Q1226.7 32.5936 1223.34 36.4419 Q1219.97 40.2903 1219.97 46.9338 L1219.97 72.576 L1212.48 72.576 L1212.48 45.4349 Q1212.48 38.8725 1210.17 35.7533 Q1207.86 32.5936 1203.04 32.5936 Q1197.33 32.5936 1193.97 36.4824 Q1190.61 40.3308 1190.61 46.9338 L1190.61 72.576 L1183.11 72.576 L1183.11 27.2059 L1190.61 27.2059 L1190.61 34.2544 Q1193.16 30.082 1196.72 28.0971 Q1200.29 26.1121 1205.19 26.1121 Q1210.13 26.1121 1213.57 28.6237 Q1217.06 31.1352 1218.72 35.9153 Z" fill="#000000" fill-rule="evenodd" fill-opacity="1" /><path clip-path="url(#clip730)" d="M1271.42 65.7705 L1271.42 89.8329 L1263.93 89.8329 L1263.93 27.2059 L1271.42 27.2059 L1271.42 34.0924 Q1273.77 30.0415 1277.34 28.0971 Q1280.94 26.1121 1285.92 26.1121 Q1294.19 26.1121 1299.33 32.6746 Q1304.52 39.2371 1304.52 49.9314 Q1304.52 60.6258 1299.33 67.1883 Q1294.19 73.7508 1285.92 73.7508 Q1280.94 73.7508 1277.34 71.8063 Q1273.77 69.8214 1271.42 65.7705 M1296.78 49.9314 Q1296.78 41.7081 1293.38 37.0496 Q1290.02 32.3505 1284.1 32.3505 Q1278.19 32.3505 1274.78 37.0496 Q1271.42 41.7081 1271.42 49.9314 Q1271.42 58.1548 1274.78 62.8538 Q1278.19 67.5124 1284.1 67.5124 Q1290.02 67.5124 1293.38 62.8538 Q1296.78 58.1548 1296.78 49.9314 Z" fill="#000000" fill-rule="evenodd" fill-opacity="1" /><path clip-path="url(#clip730)" d="M1355.68 48.0275 L1355.68 51.6733 L1321.41 51.6733 Q1321.9 59.3701 1326.03 63.421 Q1330.2 67.4314 1337.61 67.4314 Q1341.91 67.4314 1345.92 66.3781 Q1349.97 65.3249 1353.94 63.2184 L1353.94 70.267 Q1349.93 71.9684 1345.71 72.8596 Q1341.5 73.7508 1337.17 73.7508 Q1326.31 73.7508 1319.95 67.4314 Q1313.63 61.1119 1313.63 50.3365 Q1313.63 39.1965 1319.63 32.6746 Q1325.66 26.1121 1335.87 26.1121 Q1345.03 26.1121 1350.33 32.0264 Q1355.68 37.9003 1355.68 48.0275 M1348.23 45.84 Q1348.15 39.7232 1344.78 36.0774 Q1341.46 32.4315 1335.95 32.4315 Q1329.71 32.4315 1325.95 35.9558 Q1322.22 39.4801 1321.65 45.8805 L1348.23 45.84 Z" fill="#000000" fill-rule="evenodd" fill-opacity="1" /><path clip-path="url(#clip730)" d="M1394.2 34.1734 Q1392.95 33.4443 1391.45 33.1202 Q1389.99 32.7556 1388.21 32.7556 Q1381.89 32.7556 1378.49 36.8875 Q1375.12 40.9789 1375.12 48.6757 L1375.12 72.576 L1367.63 72.576 L1367.63 27.2059 L1375.12 27.2059 L1375.12 34.2544 Q1377.47 30.1225 1381.24 28.1376 Q1385.01 26.1121 1390.4 26.1121 Q1391.17 26.1121 1392.1 26.2337 Q1393.03 26.3147 1394.16 26.5172 L1394.2 34.1734 Z" fill="#000000" fill-rule="evenodd" fill-opacity="1" /><path clip-path="url(#clip730)" d="M1422.64 49.7694 Q1413.61 49.7694 1410.12 51.8354 Q1406.64 53.9013 1406.64 58.8839 Q1406.64 62.8538 1409.23 65.2034 Q1411.87 67.5124 1416.36 67.5124 Q1422.56 67.5124 1426.29 63.1374 Q1430.05 58.7219 1430.05 51.4303 L1430.05 49.7694 L1422.64 49.7694 M1437.51 46.6907 L1437.51 72.576 L1430.05 72.576 L1430.05 65.6895 Q1427.5 69.8214 1423.69 71.8063 Q1419.89 73.7508 1414.38 73.7508 Q1407.41 73.7508 1403.28 69.8619 Q1399.19 65.9325 1399.19 59.3701 Q1399.19 51.7138 1404.29 47.825 Q1409.44 43.9361 1419.6 43.9361 L1430.05 43.9361 L1430.05 43.2069 Q1430.05 38.0623 1426.65 35.2672 Q1423.29 32.4315 1417.17 32.4315 Q1413.28 32.4315 1409.6 33.3632 Q1405.91 34.295 1402.51 36.1584 L1402.51 29.2718 Q1406.6 27.692 1410.45 26.9223 Q1414.3 26.1121 1417.94 26.1121 Q1427.79 26.1121 1432.65 31.2163 Q1437.51 36.3204 1437.51 46.6907 Z" fill="#000000" fill-rule="evenodd" fill-opacity="1" /><path clip-path="url(#clip730)" d="M1460.23 14.324 L1460.23 27.2059 L1475.59 27.2059 L1475.59 32.9987 L1460.23 32.9987 L1460.23 57.6282 Q1460.23 63.1779 1461.73 64.7578 Q1463.27 66.3376 1467.93 66.3376 L1475.59 66.3376 L1475.59 72.576 L1467.93 72.576 Q1459.3 72.576 1456.02 69.3758 Q1452.74 66.1351 1452.74 57.6282 L1452.74 32.9987 L1447.27 32.9987 L1447.27 27.2059 L1452.74 27.2059 L1452.74 14.324 L1460.23 14.324 Z" fill="#000000" fill-rule="evenodd" fill-opacity="1" /><path clip-path="url(#clip730)" d="M1484.62 54.671 L1484.62 27.2059 L1492.07 27.2059 L1492.07 54.3874 Q1492.07 60.8284 1494.59 64.0691 Q1497.1 67.2693 1502.12 67.2693 Q1508.16 67.2693 1511.64 63.421 Q1515.16 59.5726 1515.16 52.9291 L1515.16 27.2059 L1522.62 27.2059 L1522.62 72.576 L1515.16 72.576 L1515.16 65.6084 Q1512.45 69.7404 1508.84 71.7658 Q1505.28 73.7508 1500.54 73.7508 Q1492.72 73.7508 1488.67 68.8897 Q1484.62 64.0286 1484.62 54.671 M1503.38 26.1121 L1503.38 26.1121 Z" fill="#000000" fill-rule="evenodd" fill-opacity="1" /><path clip-path="url(#clip730)" d="M1564.26 34.1734 Q1563.01 33.4443 1561.51 33.1202 Q1560.05 32.7556 1558.27 32.7556 Q1551.95 32.7556 1548.54 36.8875 Q1545.18 40.9789 1545.18 48.6757 L1545.18 72.576 L1537.69 72.576 L1537.69 27.2059 L1545.18 27.2059 L1545.18 34.2544 Q1547.53 30.1225 1551.3 28.1376 Q1555.07 26.1121 1560.45 26.1121 Q1561.22 26.1121 1562.15 26.2337 Q1563.09 26.3147 1564.22 26.5172 L1564.26 34.1734 Z" fill="#000000" fill-rule="evenodd" fill-opacity="1" /><path clip-path="url(#clip730)" d="M1609.06 48.0275 L1609.06 51.6733 L1574.79 51.6733 Q1575.28 59.3701 1579.41 63.421 Q1583.58 67.4314 1591 67.4314 Q1595.29 67.4314 1599.3 66.3781 Q1603.35 65.3249 1607.32 63.2184 L1607.32 70.267 Q1603.31 71.9684 1599.1 72.8596 Q1594.89 73.7508 1590.55 73.7508 Q1579.7 73.7508 1573.34 67.4314 Q1567.02 61.1119 1567.02 50.3365 Q1567.02 39.1965 1573.01 32.6746 Q1579.05 26.1121 1589.26 26.1121 Q1598.41 26.1121 1603.72 32.0264 Q1609.06 37.9003 1609.06 48.0275 M1601.61 45.84 Q1601.53 39.7232 1598.17 36.0774 Q1594.85 32.4315 1589.34 32.4315 Q1583.1 32.4315 1579.33 35.9558 Q1575.6 39.4801 1575.04 45.8805 L1601.61 45.84 Z" fill="#000000" fill-rule="evenodd" fill-opacity="1" /><path clip-path="url(#clip730)" d="M1668.29 49.7694 Q1659.25 49.7694 1655.77 51.8354 Q1652.29 53.9013 1652.29 58.8839 Q1652.29 62.8538 1654.88 65.2034 Q1657.51 67.5124 1662.01 67.5124 Q1668.21 67.5124 1671.93 63.1374 Q1675.7 58.7219 1675.7 51.4303 L1675.7 49.7694 L1668.29 49.7694 M1683.16 46.6907 L1683.16 72.576 L1675.7 72.576 L1675.7 65.6895 Q1673.15 69.8214 1669.34 71.8063 Q1665.53 73.7508 1660.02 73.7508 Q1653.06 73.7508 1648.93 69.8619 Q1644.83 65.9325 1644.83 59.3701 Q1644.83 51.7138 1649.94 47.825 Q1655.08 43.9361 1665.25 43.9361 L1675.7 43.9361 L1675.7 43.2069 Q1675.7 38.0623 1672.3 35.2672 Q1668.94 32.4315 1662.82 32.4315 Q1658.93 32.4315 1655.24 33.3632 Q1651.56 34.295 1648.16 36.1584 L1648.16 29.2718 Q1652.25 27.692 1656.1 26.9223 Q1659.94 26.1121 1663.59 26.1121 Q1673.43 26.1121 1678.29 31.2163 Q1683.16 36.3204 1683.16 46.6907 Z" fill="#000000" fill-rule="evenodd" fill-opacity="1" /><path clip-path="url(#clip730)" d="M1705.88 14.324 L1705.88 27.2059 L1721.23 27.2059 L1721.23 32.9987 L1705.88 32.9987 L1705.88 57.6282 Q1705.88 63.1779 1707.38 64.7578 Q1708.92 66.3376 1713.58 66.3376 L1721.23 66.3376 L1721.23 72.576 L1713.58 72.576 Q1704.95 72.576 1701.67 69.3758 Q1698.39 66.1351 1698.39 57.6282 L1698.39 32.9987 L1692.92 32.9987 L1692.92 27.2059 L1698.39 27.2059 L1698.39 14.324 L1705.88 14.324 Z" fill="#000000" fill-rule="evenodd" fill-opacity="1" /><path clip-path="url(#clip730)" d="M1764.78 14.324 L1764.78 27.2059 L1780.13 27.2059 L1780.13 32.9987 L1764.78 32.9987 L1764.78 57.6282 Q1764.78 63.1779 1766.28 64.7578 Q1767.82 66.3376 1772.48 66.3376 L1780.13 66.3376 L1780.13 72.576 L1772.48 72.576 Q1763.85 72.576 1760.57 69.3758 Q1757.29 66.1351 1757.29 57.6282 L1757.29 32.9987 L1751.82 32.9987 L1751.82 27.2059 L1757.29 27.2059 L1757.29 14.324 L1764.78 14.324 Z" fill="#000000" fill-rule="evenodd" fill-opacity="1" /><path clip-path="url(#clip730)" d="M1827.65 45.1919 L1827.65 72.576 L1820.2 72.576 L1820.2 45.4349 Q1820.2 38.994 1817.69 35.7938 Q1815.17 32.5936 1810.15 32.5936 Q1804.12 32.5936 1800.63 36.4419 Q1797.15 40.2903 1797.15 46.9338 L1797.15 72.576 L1789.65 72.576 L1789.65 9.54393 L1797.15 9.54393 L1797.15 34.2544 Q1799.82 30.163 1803.43 28.1376 Q1807.07 26.1121 1811.81 26.1121 Q1819.63 26.1121 1823.64 30.9732 Q1827.65 35.7938 1827.65 45.1919 Z" fill="#000000" fill-rule="evenodd" fill-opacity="1" /><path clip-path="url(#clip730)" d="M1881.33 48.0275 L1881.33 51.6733 L1847.05 51.6733 Q1847.54 59.3701 1851.67 63.421 Q1855.85 67.4314 1863.26 67.4314 Q1867.55 67.4314 1871.56 66.3781 Q1875.61 65.3249 1879.58 63.2184 L1879.58 70.267 Q1875.57 71.9684 1871.36 72.8596 Q1867.15 73.7508 1862.81 73.7508 Q1851.96 73.7508 1845.6 67.4314 Q1839.28 61.1119 1839.28 50.3365 Q1839.28 39.1965 1845.27 32.6746 Q1851.31 26.1121 1861.52 26.1121 Q1870.67 26.1121 1875.98 32.0264 Q1881.33 37.9003 1881.33 48.0275 M1873.87 45.84 Q1873.79 39.7232 1870.43 36.0774 Q1867.11 32.4315 1861.6 32.4315 Q1855.36 32.4315 1851.59 35.9558 Q1847.87 39.4801 1847.3 45.8805 L1873.87 45.84 Z" fill="#000000" fill-rule="evenodd" fill-opacity="1" /><path clip-path="url(#clip730)" d="M1942.9 9.54393 L1942.9 15.7418 L1935.77 15.7418 Q1931.76 15.7418 1930.18 17.3622 Q1928.64 18.9825 1928.64 23.1955 L1928.64 27.2059 L1940.91 27.2059 L1940.91 32.9987 L1928.64 32.9987 L1928.64 72.576 L1921.15 72.576 L1921.15 32.9987 L1914.02 32.9987 L1914.02 27.2059 L1921.15 27.2059 L1921.15 24.0462 Q1921.15 16.471 1924.67 13.0277 Q1928.19 9.54393 1935.85 9.54393 L1942.9 9.54393 Z" fill="#000000" fill-rule="evenodd" fill-opacity="1" /><path clip-path="url(#clip730)" d="M1949.14 27.2059 L1956.59 27.2059 L1956.59 72.576 L1949.14 72.576 L1949.14 27.2059 M1949.14 9.54393 L1956.59 9.54393 L1956.59 18.9825 L1949.14 18.9825 L1949.14 9.54393 Z" fill="#000000" fill-rule="evenodd" fill-opacity="1" /><path clip-path="url(#clip730)" d="M2009.9 45.1919 L2009.9 72.576 L2002.45 72.576 L2002.45 45.4349 Q2002.45 38.994 1999.94 35.7938 Q1997.42 32.5936 1992.4 32.5936 Q1986.37 32.5936 1982.88 36.4419 Q1979.4 40.2903 1979.4 46.9338 L1979.4 72.576 L1971.9 72.576 L1971.9 27.2059 L1979.4 27.2059 L1979.4 34.2544 Q1982.07 30.163 1985.68 28.1376 Q1989.32 26.1121 1994.06 26.1121 Q2001.88 26.1121 2005.89 30.9732 Q2009.9 35.7938 2009.9 45.1919 Z" fill="#000000" fill-rule="evenodd" fill-opacity="1" /><path clip-path="url(#clip730)" d="M2045.39 49.7694 Q2036.35 49.7694 2032.87 51.8354 Q2029.39 53.9013 2029.39 58.8839 Q2029.39 62.8538 2031.98 65.2034 Q2034.61 67.5124 2039.11 67.5124 Q2045.31 67.5124 2049.03 63.1374 Q2052.8 58.7219 2052.8 51.4303 L2052.8 49.7694 L2045.39 49.7694 M2060.25 46.6907 L2060.25 72.576 L2052.8 72.576 L2052.8 65.6895 Q2050.25 69.8214 2046.44 71.8063 Q2042.63 73.7508 2037.12 73.7508 Q2030.16 73.7508 2026.02 69.8619 Q2021.93 65.9325 2021.93 59.3701 Q2021.93 51.7138 2027.04 47.825 Q2032.18 43.9361 2042.35 43.9361 L2052.8 43.9361 L2052.8 43.2069 Q2052.8 38.0623 2049.4 35.2672 Q2046.04 32.4315 2039.92 32.4315 Q2036.03 32.4315 2032.34 33.3632 Q2028.66 34.295 2025.25 36.1584 L2025.25 29.2718 Q2029.35 27.692 2033.19 26.9223 Q2037.04 26.1121 2040.69 26.1121 Q2050.53 26.1121 2055.39 31.2163 Q2060.25 36.3204 2060.25 46.6907 Z" fill="#000000" fill-rule="evenodd" fill-opacity="1" /><path clip-path="url(#clip730)" d="M2075.61 9.54393 L2083.06 9.54393 L2083.06 72.576 L2075.61 72.576 L2075.61 9.54393 Z" fill="#000000" fill-rule="evenodd" fill-opacity="1" /><path clip-path="url(#clip730)" d="M2132.4 14.324 L2132.4 27.2059 L2147.75 27.2059 L2147.75 32.9987 L2132.4 32.9987 L2132.4 57.6282 Q2132.4 63.1779 2133.9 64.7578 Q2135.44 66.3376 2140.1 66.3376 L2147.75 66.3376 L2147.75 72.576 L2140.1 72.576 Q2131.47 72.576 2128.19 69.3758 Q2124.91 66.1351 2124.91 57.6282 L2124.91 32.9987 L2119.44 32.9987 L2119.44 27.2059 L2124.91 27.2059 L2124.91 14.324 L2132.4 14.324 Z" fill="#000000" fill-rule="evenodd" fill-opacity="1" /><path clip-path="url(#clip730)" d="M2157.56 27.2059 L2165.01 27.2059 L2165.01 72.576 L2157.56 72.576 L2157.56 27.2059 M2157.56 9.54393 L2165.01 9.54393 L2165.01 18.9825 L2157.56 18.9825 L2157.56 9.54393 Z" fill="#000000" fill-rule="evenodd" fill-opacity="1" /><path clip-path="url(#clip730)" d="M2215.93 35.9153 Q2218.73 30.8922 2222.61 28.5022 Q2226.5 26.1121 2231.77 26.1121 Q2238.86 26.1121 2242.71 31.0947 Q2246.56 36.0368 2246.56 45.1919 L2246.56 72.576 L2239.06 72.576 L2239.06 45.4349 Q2239.06 38.913 2236.75 35.7533 Q2234.44 32.5936 2229.7 32.5936 Q2223.91 32.5936 2220.55 36.4419 Q2217.19 40.2903 2217.19 46.9338 L2217.19 72.576 L2209.69 72.576 L2209.69 45.4349 Q2209.69 38.8725 2207.38 35.7533 Q2205.07 32.5936 2200.25 32.5936 Q2194.54 32.5936 2191.18 36.4824 Q2187.82 40.3308 2187.82 46.9338 L2187.82 72.576 L2180.32 72.576 L2180.32 27.2059 L2187.82 27.2059 L2187.82 34.2544 Q2190.37 30.082 2193.93 28.0971 Q2197.5 26.1121 2202.4 26.1121 Q2207.34 26.1121 2210.79 28.6237 Q2214.27 31.1352 2215.93 35.9153 Z" fill="#000000" fill-rule="evenodd" fill-opacity="1" /><path clip-path="url(#clip730)" d="M2300.23 48.0275 L2300.23 51.6733 L2265.96 51.6733 Q2266.45 59.3701 2270.58 63.421 Q2274.75 67.4314 2282.16 67.4314 Q2286.46 67.4314 2290.47 66.3781 Q2294.52 65.3249 2298.49 63.2184 L2298.49 70.267 Q2294.48 71.9684 2290.26 72.8596 Q2286.05 73.7508 2281.72 73.7508 Q2270.86 73.7508 2264.5 67.4314 Q2258.18 61.1119 2258.18 50.3365 Q2258.18 39.1965 2264.18 32.6746 Q2270.21 26.1121 2280.42 26.1121 Q2289.58 26.1121 2294.88 32.0264 Q2300.23 37.9003 2300.23 48.0275 M2292.78 45.84 Q2292.69 39.7232 2289.33 36.0774 Q2286.01 32.4315 2280.5 32.4315 Q2274.26 32.4315 2270.5 35.9558 Q2266.77 39.4801 2266.2 45.8805 L2292.78 45.84 Z" fill="#000000" fill-rule="evenodd" fill-opacity="1" /><polyline clip-path="url(#clip732)" style="stroke:#009af9; stroke-linecap:butt; stroke-linejoin:round; stroke-width:4; stroke-opacity:1; fill:none" points="
  317.759,1590.99 345.284,1532.21 372.808,1474.7 400.332,1418.47 427.856,1363.5 455.38,1309.82 482.905,1257.4 510.429,1206.27 537.953,1156.41 565.477,1107.82 
  593.002,1060.51 620.526,1014.47 648.05,969.704 675.574,926.203 703.099,883.965 730.623,842.988 758.147,803.267 785.671,764.797 813.196,727.574 840.72,691.591 
  868.244,656.844 895.768,623.326 923.293,591.031 950.817,559.953 978.341,530.085 1005.87,501.421 1033.39,473.952 1060.91,447.674 1088.44,422.578 1115.96,398.657 
  1143.49,375.905 1171.01,354.315 1198.53,333.879 1226.06,314.591 1253.58,296.445 1281.11,279.434 1308.63,263.552 1336.16,248.793 1363.68,235.151 1391.2,222.621 
  1418.73,211.199 1446.25,200.879 1473.78,191.657 1501.3,183.529 1528.83,176.492 1556.35,170.543 1583.87,165.679 1611.4,161.899 1638.92,159.199 1666.45,157.58 
  1693.97,157.041 1721.5,157.58 1749.02,159.199 1776.54,161.899 1804.07,165.679 1831.59,170.543 1859.12,176.492 1886.64,183.529 1914.17,191.657 1941.69,200.879 
  1969.21,211.199 1996.74,222.621 2024.26,235.151 2051.79,248.793 2079.31,263.552 2106.83,279.434 2134.36,296.445 2161.88,314.591 2189.41,333.879 2216.93,354.315 
  2244.46,375.905 2271.98,398.657 2299.5,422.578 2327.03,447.674 2354.55,473.952 2382.08,501.421 2409.6,530.085 2437.13,559.953 2464.65,591.031 2492.17,623.326 
  2519.7,656.844 2547.22,691.591 2574.75,727.574 2602.27,764.797 2629.8,803.267 2657.32,842.988 2684.84,883.965 2712.37,926.203 2739.89,969.704 2767.42,1014.47 
  2794.94,1060.51 2822.47,1107.82 2849.99,1156.41 2877.51,1206.27 2905.04,1257.4 2932.56,1309.82 2960.09,1363.5 2987.61,1418.47 3015.13,1474.7 3042.66,1532.21 
  3070.18,1590.99 
  "/>
</svg>
